<svg width="30" height="28" viewBox="0 0 30 28" fill="none" xmlns="http://www.w3.org/2000/svg">
<g id="&#240;&#159;&#166;&#134; icon &#34;shopping cart&#34;">
<path id="Vector" d="M1 1H4.88889L5.66667 4.0589M5.66667 4.0589L8.77778 19.3534H25.8889L29 4.0589H5.66667Z" stroke="black" stroke-width="2" stroke-linecap="round" stroke-linejoin="round"/>
<path id="Vector_2" d="M22.7782 27.0003C23.6373 27.0003 24.3338 26.3156 24.3338 25.4709C24.3338 24.6262 23.6373 23.9414 22.7782 23.9414C21.9191 23.9414 21.2227 24.6262 21.2227 25.4709C21.2227 26.3156 21.9191 27.0003 22.7782 27.0003Z" stroke="black" stroke-width="2" stroke-linecap="round" stroke-linejoin="round"/>
<path id="Vector_3" d="M11.8891 27.0003C12.7482 27.0003 13.4446 26.3156 13.4446 25.4709C13.4446 24.6262 12.7482 23.9414 11.8891 23.9414C11.0299 23.9414 10.3335 24.6262 10.3335 25.4709C10.3335 26.3156 11.0299 27.0003 11.8891 27.0003Z" stroke="black" stroke-width="2" stroke-linecap="round" stroke-linejoin="round"/>
</g>
</svg>
