<svg width="65" height="48" viewBox="0 0 65 48" fill="none" xmlns="http://www.w3.org/2000/svg">
<g id="Vector">
<path d="M0 23.4268C0 21.1409 0.485237 18.7462 1.45571 16.2426C2.4801 13.739 3.82798 11.4804 5.49936 9.46663C7.17073 7.39845 9.08472 5.68404 11.2413 4.3234C13.4519 2.96276 15.7702 2.28244 18.1964 2.28244C19.4364 2.28244 20.6765 2.50014 21.9166 2.93555C23.1566 3.37095 24.2619 3.99685 25.2323 4.81323C26.2567 5.62962 27.0655 6.60928 27.6585 7.75222C28.3055 8.89516 28.629 10.1742 28.629 11.5892C27.6585 11.5892 26.7689 11.4804 25.9602 11.2627C25.2054 11.045 24.4506 10.8001 23.6958 10.5279C22.9409 10.2014 22.1861 9.92925 21.4313 9.71154C20.7304 9.49384 19.9486 9.38499 19.086 9.38499C16.8755 9.38499 15.0693 9.95646 13.6675 11.0994C12.3196 12.1879 11.2413 13.5758 10.4326 15.263C9.62387 16.9502 9.05776 18.7734 8.73427 20.7327C8.4647 22.6376 8.32991 24.4337 8.32991 26.1209C8.32991 26.393 8.32991 26.9101 8.32991 27.672C8.38382 28.434 8.41078 29.2504 8.41078 30.1212C8.46469 30.9376 8.49165 31.7267 8.49165 32.4887C8.54557 33.2506 8.59948 33.7677 8.6534 34.0398C9.24647 35.346 9.81258 36.3529 10.3517 37.0604C10.9448 37.768 11.5648 38.3122 12.2118 38.6932C12.8588 39.0198 13.5597 39.2375 14.3145 39.3463C15.0693 39.4007 15.9589 39.428 16.9833 39.428C18.3851 39.428 19.5982 39.2103 20.6226 38.7748C21.7009 38.3394 22.6983 37.8224 23.6149 37.2237C24.5314 36.625 25.3941 35.9719 26.2028 35.2644C27.0115 34.5024 27.8472 33.8221 28.7099 33.2234C29.6264 32.5703 30.5969 32.0533 31.6213 31.6723C32.6996 31.2369 33.9127 31.0192 35.2606 31.0192C35.2606 33.6861 34.7753 36.0536 33.8049 38.1217C32.8883 40.1899 31.5674 41.9588 29.8421 43.4282C28.1707 44.8977 26.1759 46.0407 23.8575 46.8571C21.5931 47.619 19.113 48 16.4172 48C13.8832 48 11.5918 47.1292 9.543 45.3876C7.54814 43.6459 5.82285 41.5233 4.36714 39.0198C2.96534 36.4618 1.88703 33.7677 1.13222 30.9376C0.377407 28.1074 0 25.6038 0 23.4268Z" fill="#343434"/>
<path d="M65 24.6777C65 26.9733 64.5127 29.3783 63.5381 31.8925C62.5093 34.4067 61.1557 36.675 59.4772 38.6973C57.7988 40.7743 55.8766 42.496 53.7108 43.8624C51.4909 45.2289 49.1627 45.9121 46.7262 45.9121C45.4809 45.9121 44.2355 45.6935 42.9902 45.2562C41.7449 44.8189 40.6349 44.1904 39.6603 43.3705C38.6315 42.5507 37.8194 41.5668 37.2238 40.419C36.5741 39.2712 36.2492 37.9868 36.2492 36.5657C37.2238 36.5657 38.1172 36.675 38.9293 36.8936C39.6874 37.1123 40.4454 37.3582 41.2034 37.6315C41.9614 37.9595 42.7195 38.2327 43.4775 38.4514C44.1814 38.67 44.9665 38.7793 45.8328 38.7793C48.0527 38.7793 49.8666 38.2054 51.2743 37.0576C52.6279 35.9645 53.7108 34.5707 54.523 32.8763C55.3352 31.182 55.9037 29.3509 56.2286 27.3833C56.4993 25.4703 56.6347 23.6666 56.6347 21.9722C56.6347 21.6989 56.6347 21.1797 56.6347 20.4145C56.5805 19.6493 56.5534 18.8294 56.5534 17.9549C56.4993 17.135 56.4722 16.3425 56.4722 15.5773C56.4181 14.8121 56.3639 14.2929 56.3098 14.0196C55.7142 12.7078 55.1457 11.6966 54.6042 10.9861C54.0086 10.2756 53.386 9.72899 52.7362 9.34639C52.0865 9.01844 51.3826 8.79982 50.6246 8.6905C49.8666 8.63584 48.9732 8.60852 47.9444 8.60852C46.5367 8.60852 45.3184 8.82714 44.2897 9.2644C43.2068 9.70166 42.2051 10.2209 41.2846 10.8221C40.3642 11.4234 39.4979 12.0793 38.6857 12.7898C37.8735 13.555 37.0343 14.2382 36.168 14.8394C35.2475 15.4953 34.2729 16.0146 33.2442 16.3972C32.1613 16.8344 30.943 17.0531 29.5894 17.0531C29.5894 14.3749 30.0767 11.9973 31.0513 9.92029C31.9718 7.84331 33.2983 6.06695 35.0309 4.59121C36.7094 3.11546 38.7128 1.96766 41.041 1.1478C43.3151 0.382601 45.8057 0 48.513 0C51.0578 0 53.3589 0.874516 55.4164 2.62355C57.4197 4.37258 59.1524 6.50421 60.6143 9.01845C62.022 11.5873 63.1049 14.2929 63.863 17.135C64.621 19.9772 65 22.4915 65 24.6777Z" fill="#343434"/>
</g>
</svg>
